<svg width="36" height="36" viewBox="0 0 36 36" fill="none" xmlns="http://www.w3.org/2000/svg">
<path d="M24.1161 21.8839C24.6043 22.372 25.3957 22.372 25.8839 21.8839C26.372 21.3957 26.372 20.6043 25.8839 20.1161L24.1161 21.8839ZM18 14L18.8839 13.1161C18.3957 12.6279 17.6043 12.6279 17.1161 13.1161L18 14ZM10.1161 20.1161C9.62796 20.6043 9.62796 21.3957 10.1161 21.8839C10.6043 22.372 11.3957 22.372 11.8839 21.8839L10.1161 20.1161ZM32.75 18C32.75 26.1462 26.1462 32.75 18 32.75V35.25C27.5269 35.25 35.25 27.5269 35.25 18H32.75ZM18 32.75C9.8538 32.75 3.25 26.1462 3.25 18H0.75C0.75 27.5269 8.47309 35.25 18 35.25V32.75ZM3.25 18C3.25 9.8538 9.8538 3.25 18 3.25V0.75C8.47309 0.75 0.75 8.47309 0.75 18H3.25ZM18 3.25C26.1462 3.25 32.75 9.8538 32.75 18H35.25C35.25 8.47309 27.5269 0.75 18 0.75V3.25ZM25.8839 20.1161L18.8839 13.1161L17.1161 14.8839L24.1161 21.8839L25.8839 20.1161ZM17.1161 13.1161L10.1161 20.1161L11.8839 21.8839L18.8839 14.8839L17.1161 13.1161Z" fill="black"/>
</svg>
